<svg width="50" height="51" viewBox="0 0 50 51" fill="none" xmlns="http://www.w3.org/2000/svg">
<path id="Vector" d="M25 0.902344C11.1942 0.902344 0 12.0965 0 25.9023C0 39.7081 11.1942 50.9023 25 50.9023C38.8058 50.9023 50 39.7081 50 25.9023C50 12.0965 38.8058 0.902344 25 0.902344ZM33.0413 26.2874L20.8538 35.1546C20.787 35.2026 20.7082 35.2313 20.6262 35.2374C20.5441 35.2436 20.462 35.227 20.3887 35.1895C20.3155 35.152 20.254 35.0951 20.211 35.0249C20.168 34.9548 20.1452 34.8741 20.1451 34.7919V17.0686C20.1448 16.9862 20.1674 16.9053 20.2103 16.8349C20.2532 16.7645 20.3147 16.7073 20.3881 16.6698C20.4615 16.6322 20.5439 16.6157 20.6261 16.6221C20.7083 16.6285 20.7871 16.6575 20.8538 16.7059L33.0413 25.5675C33.0989 25.6082 33.1458 25.6622 33.1783 25.7248C33.2107 25.7874 33.2276 25.8569 33.2276 25.9275C33.2276 25.998 33.2107 26.0675 33.1783 26.1301C33.1458 26.1927 33.0989 26.2467 33.0413 26.2874Z" fill="#1BAC69"/>
</svg>
